<?xml version="1.0" encoding="utf-8" ?><svg xmlns="http://www.w3.org/2000/svg" xmlns:xlink="http://www.w3.org/1999/xlink" width="332" height="145" viewBox="0 0 332 145"><defs><linearGradient id="gradient_0" gradientUnits="userSpaceOnUse" x1="702.6944" y1="245.67856" x2="627.77728" y2="406.89212"><stop offset="0" stop-color="#CFCFD1" stop-opacity="0.94117647"/><stop offset="1" stop-color="#E4E3E3"/></linearGradient></defs><path fill="url(#gradient_0)" transform="matrix(0.216146 0 0 0.215774 0 6.10352e-05)" d="M705.089 245.689C706.464 248.713 706.439 255.098 706.508 258.603C707.323 300.215 705.613 341.916 706.92 383.519C707.147 390.745 707.383 395.794 706.654 403.063C698.914 410.818 681.442 405.623 671.981 406.402C648.917 408.301 623.28 413.489 604.875 395.35C599.907 390.454 586.682 370.591 587.21 364.025C587.743 357.398 588.505 348.882 588.409 341.159C588.503 336.369 589.085 330.035 590.595 325.484C591.737 327.633 592.394 332.947 592.36 335.201C591.624 383.98 630.611 405.673 674.118 388.303C676.553 387.331 676.922 387.128 679.415 387.961L680.418 390.662C683.858 393.178 699.527 392.42 704.538 392.42C705.859 343.538 704.097 294.409 705.089 245.689Z"/><path fill="#E7E6E6" transform="matrix(0.216146 0 0 0.215774 0 6.10352e-05)" d="M895.9 322.251L896.623 322.971C896.995 325.634 897.35 326.678 898.224 329.241L898.425 329.057C900.025 338.187 898.447 347.627 900.602 357.331C903.159 368.852 910.129 378.626 919.918 385.08C932.602 393.388 948.05 396.363 962.913 393.359C988.023 388.123 987.444 375.458 998.305 358.891C999.85 364.977 1002.28 372.557 1001.31 378.615C999.269 383.915 997.721 387.931 993.875 392.251C973.502 415.137 930.197 414.49 907.748 395.086C905.14 392.831 899.336 386.583 899.125 383.245L901.251 382.166C898.761 379.987 897.412 378.856 896.897 375.358C894.696 360.391 888.179 335.484 895.9 322.251Z"/><path fill="#E7E6E6" transform="matrix(0.216146 0 0 0.215774 0 6.10352e-05)" d="M783.511 327.278C784.433 327.481 785.568 327.837 786.498 328.102C787.882 330.402 786.23 336.447 786.18 339.321C785.844 383.168 815.314 399.254 855.303 390.682C869.311 387.68 878.308 366.608 883.115 367.015C884.61 370.253 883.139 375.144 882.242 378.499C881.379 380.31 880.473 382.1 879.525 383.868C874.377 393.322 866.936 398.834 856.658 401.714C826.346 410.209 792.336 400.408 783.848 367.079C781.245 356.861 777.963 336.977 783.511 327.278Z"/><path fill="#E7E6E6" transform="matrix(0.216146 0 0 0.215774 0 6.10352e-05)" d="M727.256 240.293C732.569 240.224 738.416 239.688 743.202 241.874C744.695 243.777 744.68 244.886 744.705 247.409C745.154 291.587 744.392 335.809 744.407 379.993C744.408 382.257 743.862 383.316 742.251 384.681C739.82 384.802 738.733 384.033 736.565 382.924C736.407 380.099 737.272 377.193 737.44 374.266C738.623 353.661 736.119 332.675 736.049 312.157C736.018 303.069 740.12 276.102 737.62 269.128L737.476 268.738C734.886 261.531 723.23 247.93 725.212 241.224L727.256 240.293Z"/><path fill="#E7E6E6" transform="matrix(0.216146 0 0 0.215774 0 6.10352e-05)" d="M855.513 328.17L879.883 328.007C882.572 329.006 882.365 330.512 882.47 332.867C877.28 345.05 827.584 335.132 816.477 340.67C814.107 341.852 811.27 347.237 809.921 349.573C809.193 343.027 809.168 335.299 808.511 328.323C821.614 327.552 841.946 328.159 855.513 328.17Z"/><path fill="#D5D4D5" transform="matrix(0.216146 0 0 0.215774 0 6.10352e-05)" d="M855.513 328.17L879.883 328.007C874.344 334.091 863.669 337.887 856.281 333.405C854.655 330.823 855.088 331.724 855.513 328.17Z"/><path fill="#E7E6E6" transform="matrix(0.216146 0 0 0.215774 0 6.10352e-05)" d="M921.385 328.3C935.977 327.777 953.942 328.25 968.689 328.368C975.444 328.341 987.336 328.017 993.641 328.668C994.417 333.535 991.36 336.403 986.914 337.818C968.562 343.66 948.418 334.809 930.171 340.872C927.758 343.793 925.3 347.025 922.936 350.018L921.385 328.3Z"/><path fill="#D5D4D5" transform="matrix(0.216146 0 0 0.215774 0 6.10352e-05)" d="M968.689 328.368C975.444 328.341 987.336 328.017 993.641 328.668C987.214 334.307 970.667 339.753 968.689 328.368Z"/><path fill="#E7E6E6" transform="matrix(0.216146 0 0 0.215774 0 6.10352e-05)" d="M831.736 291.876C846.199 290.207 856.611 298.912 857.667 312.948C857.839 315.243 858.061 319.086 856.565 320.947C850.789 318.371 852.924 306.61 835.838 302.952C817.267 303.387 818.675 315.899 811.77 322.372L810.948 322.203C806.52 317.238 810.998 310.473 814.024 305.653C818.571 298.413 823.06 293.816 831.736 291.876Z"/><path fill="#E7E6E6" transform="matrix(0.216146 0 0 0.215774 0 6.10352e-05)" d="M944.045 292.562C971.028 289.783 974.964 319.026 967.917 320.763C966.079 318.107 967.512 314.09 964.638 310.536C960.384 305.278 955.064 303.671 948.807 302.747C934.679 302.899 932.881 313.577 924.181 321.6L922.71 321.046C921.899 319.266 922.119 318.102 922.499 316.238C924.939 304.291 933.09 296.55 944.045 292.562Z"/><path fill="#D5D4D5" transform="matrix(0.216146 0 0 0.215774 0 6.10352e-05)" d="M645.226 308.385C646.104 308.386 647.059 308.409 647.927 308.558C672.47 312.795 679.334 329.796 675.534 352.555C671.877 334.434 677.899 328.081 657.123 319.225C642.92 315.608 629.395 318.95 621.565 332.654C620.441 334.621 619.074 336.723 617.8 338.598L616.813 338.062C616.567 335.146 619.807 326.357 621.493 323.793C627.776 314.238 634.691 310.761 645.226 308.385Z"/><path fill="#D5D4D5" transform="matrix(0.216146 0 0 0.215774 0 6.10352e-05)" d="M532.182 357.859L534.245 359.359C541.407 379.32 516.84 397.79 499.158 399.652C485.849 401.053 473.507 395.941 463.305 387.66C461.738 386.082 461.588 385.831 460.625 383.871L461.315 382.869C463.842 383.129 470.494 387.604 473.177 389.218C488.331 398.332 516.374 394.557 527.535 380.25C533.125 373.086 533.18 366.318 532.182 357.859Z"/><path fill="#D5D4D5" transform="matrix(0.216146 0 0 0.215774 0 6.10352e-05)" d="M458.084 332.727C463.376 334.36 464.989 341.398 470.74 343.976C478.736 347.877 487.495 349.507 496.006 351.811C506.097 354.543 513.085 356.261 510.621 368.013L508.143 368.074C505.284 366.97 503.774 364.532 501.889 362.107C484.368 356.933 464.566 351.912 458.084 332.727Z"/><defs><linearGradient id="gradient_1" gradientUnits="userSpaceOnUse" x1="556.05322" y1="308.47177" x2="562.1933" y2="399.17307"><stop offset="0" stop-color="#D6D5D7" stop-opacity="0.93333334"/><stop offset="1" stop-color="#E2E0E1"/></linearGradient></defs><path fill="url(#gradient_1)" transform="matrix(0.216146 0 0 0.215774 0 6.10352e-05)" d="M547.884 392.84C546.991 381.507 547.352 364.353 547.418 352.82C547.508 336.85 547.347 318.379 548.344 302.497C550.237 305.173 549.649 382.296 549.922 392.405C554.797 392.371 563.566 392.059 568.08 392.763C571.653 393.31 573.228 393.376 576.85 393.336C564.758 403.855 559.718 403.533 547.884 392.84Z"/><path fill="#D5D4D5" transform="matrix(0.216146 0 0 0.215774 0 6.10352e-05)" d="M735.742 391.86C742.548 391.564 775.201 390.636 778.798 394.421C778.078 396.729 778.029 396.179 775.633 397.899C767.317 400.333 736.49 403.272 733.232 393.029C733.891 392.196 734.504 392.255 735.742 391.86Z"/><path fill="#E7E6E6" transform="matrix(0.216146 0 0 0.215774 0 6.10352e-05)" d="M674.803 242.392C676.049 242.515 676.608 242.829 677.74 243.305C680.108 247.745 680.742 292.192 678.392 294.929C676.04 293.878 672.746 292.023 673.041 289.041C674.459 274.71 672.486 256.231 674.803 242.392Z"/><path fill="#D5D4D5" transform="matrix(0.216146 0 0 0.215774 0 6.10352e-05)" d="M485.496 308.419C491.44 308.298 495.206 308.342 501.11 308.87C504.072 311.839 507.313 315.58 510.388 318.739C517.356 314.016 520.435 311.645 528.425 308.838C526.778 311.935 523.5 315.477 521.159 318.224C507.041 330.367 492.962 304.165 482.566 319.882L481.54 319.489C480.24 315.949 482.052 310.468 485.496 308.419Z"/><path fill="#D5D4D5" fill-opacity="0.90588236" transform="matrix(0.216146 0 0 0.215774 0 6.10352e-05)" d="M770.14 321.319C770.339 329.321 770.876 377.369 768.895 382.76C767.187 362.77 768.038 333.209 768.198 312.828C768.353 293.113 767.982 266.661 769.429 247.373L769.457 248.677L769.772 248.684C770.362 255.378 770.129 262.821 770.075 269.593C769.177 274.61 769.252 315.338 770.14 321.319Z"/><path fill="#D5D4D5" fill-opacity="0.94901961" transform="matrix(0.216146 0 0 0.215774 0 6.10352e-05)" d="M568.08 392.763C570.306 392.621 574.112 392.647 575.825 391.516C578.888 379.1 574.805 307.386 578.004 303.198C579.479 309.965 579.327 385.443 578.05 391.877L576.85 393.336C573.228 393.376 571.653 393.31 568.08 392.763Z"/><path fill="#E7E6E6" transform="matrix(0.216146 0 0 0.215774 0 6.10352e-05)" d="M548.415 255.961C552.747 256.924 555.281 263.274 561.62 264.322C567.408 265.28 571.128 260.206 575.023 261.05L574.391 263.348C564.89 270.44 548.611 271.477 548.415 255.961Z"/><path fill="#E7E6E6" fill-opacity="0.47843137" transform="matrix(0.216146 0 0 0.215774 0 6.10352e-05)" d="M770.14 321.319C769.252 315.338 769.177 274.61 770.075 269.593C770.406 283.148 771.009 308.405 770.14 321.319Z"/></svg>